<svg xmlns="http://www.w3.org/2000/svg" width="60.569" height="41.48" viewBox="0 0 60.569 41.48"><g transform="translate(-5.47 -18)"><g transform="translate(5.47 18)"><path d="M60.405,49.4V20.23A2.263,2.263,0,0,0,58.192,18H13.317a2.255,2.255,0,0,0-2.238,2.247V49.42L5.47,56.127A3.353,3.353,0,0,0,8.823,59.48H62.685a3.353,3.353,0,0,0,3.353-3.353h0Zm-20.12,8.97h-9a.562.562,0,0,1,0-1.123h9a.562.562,0,1,1,0,1.123ZM26.537,56.127l1.685-2.079h15.09l1.677,2.045ZM58.77,46.008a2.071,2.071,0,0,1-2.079,2.054H14.826a2.1,2.1,0,0,1-2.087-2.054V21.353a2.087,2.087,0,0,1,2.087-2.062H56.691a2.079,2.079,0,0,1,2.079,2.062Z" transform="translate(-5.47 -18)" fill="#2a4799"/></g><g transform="translate(32.606 27.901)"><path d="M52.4,36l1.677-2.565L52.226,31.52,49.66,33.2a6.807,6.807,0,0,0-.838-.319L48.21,29.81H45.469l-.6,3.068a5.433,5.433,0,0,0-.838.319L41.462,31.52,39.55,33.432,41.227,36a7.813,7.813,0,0,0-.36.838l-3.026.679v2.7l3.043.6a6.607,6.607,0,0,0,.344.838L39.55,44.221l1.911,1.9,2.565-1.719a6.053,6.053,0,0,0,.838.335l.654,3.06H48.2l.612-3.06a6.456,6.456,0,0,0,.838-.335l2.574,1.719,1.9-1.9L52.41,41.647a5.072,5.072,0,0,0,.352-.838l3.035-.6v-2.7L52.762,36.9a6.471,6.471,0,0,0-.36-.838Zm-5.583,5.977a3.144,3.144,0,1,1,3.152-3.152,3.144,3.144,0,0,1-3.152,3.152Z" transform="translate(-37.84 -29.81)" fill="#2a4799"/></g><g transform="translate(20.945 23.575)"><path d="M34.585,31.927a4.56,4.56,0,0,0,.075-.671l1.945-.956-.486-1.828-2.163.143a3.588,3.588,0,0,0-.4-.537l.7-2.062-1.677-.939-1.442,1.635a4.108,4.108,0,0,0-.6-.092l-.972-1.97-1.828.478.134,2.2c-.168.126-.36.235-.52.377l-2.062-.7-.947,1.677,1.635,1.434a4.343,4.343,0,0,0-.075.654l-1.962.972.486,1.836,2.171-.151c.126.184.251.36.394.537L26.3,36.018l1.635.939,1.425-1.635a4.326,4.326,0,0,0,.662.067l.964,1.97,1.836-.486-.151-2.2a6.061,6.061,0,0,0,.537-.369l2.054.679.947-1.66Zm-3.731,1.224a2.2,2.2,0,1,1,1.559-2.708h0a2.2,2.2,0,0,1-1.559,2.7Z" transform="translate(-23.93 -24.65)" fill="#2a4799"/></g></g></svg>