<svg xmlns="http://www.w3.org/2000/svg" width="61.514" height="41.781" viewBox="0 0 61.514 41.781"><g transform="translate(-5.64 -20.27)"><g transform="translate(5.64 20.27)"><g transform="translate(9.719 37.039)"><path d="M16.7,63.035v-.483h3.884v.422a4.657,4.657,0,0,0-1.107,1.239,5.334,5.334,0,0,0-.879,1.6,6.732,6.732,0,0,0-.272,1.248h-.765a6.151,6.151,0,0,1,.281-1.318,8.041,8.041,0,0,1,.765-1.468,6.459,6.459,0,0,1,1.107-1.239Zm5.765,1.52a1.221,1.221,0,0,1-.624-.343.642.642,0,0,1-.29-.554,1.441,1.441,0,0,1,.483-.879,2.566,2.566,0,0,1,1.265-.334,2.03,2.03,0,0,1,1.318.413,1.028,1.028,0,0,1,.492.826.633.633,0,0,1-.281.554,1.257,1.257,0,0,1-.624.343,3.058,3.058,0,0,1,.826.5.8.8,0,0,1,.272.694,1.257,1.257,0,0,1-.545,1.037,2.3,2.3,0,0,1-1.459.334,2.153,2.153,0,0,1-1.371-.334,1.151,1.151,0,0,1-.571-1.063,1.107,1.107,0,0,1,.272-.765,1.591,1.591,0,0,1,.879-.431Zm-.141-.967a.791.791,0,0,0,.264.562,1.415,1.415,0,0,0,.773.2,1.3,1.3,0,0,0,.694-.2.729.729,0,0,0,.281-.492.879.879,0,0,0-.281-.554,1.38,1.38,0,0,0-1.468,0A.94.94,0,0,0,22.324,63.589ZM22.1,65.75a.659.659,0,0,0,.149.483.747.747,0,0,0,.422.36,2.953,2.953,0,0,0,.685.123,1.169,1.169,0,0,0,.835-.281.879.879,0,0,0,.167-1.16,1,1,0,0,0-.167-.167,1.45,1.45,0,0,0-.879-.255,1.239,1.239,0,0,0-.835.255.641.641,0,0,0-.352.641Zm4.034.281.685-.079a.879.879,0,0,0,.352.554,1.265,1.265,0,0,0,.7.211,1.591,1.591,0,0,0,.536-.123,1.257,1.257,0,0,0,.51-.36c.079-.158.141-.325.2-.483a1.459,1.459,0,0,0,.132-.694v-.132a1.081,1.081,0,0,1-.624.4,1.5,1.5,0,0,1-.826.211,1.889,1.889,0,0,1-1.248-.431,1.336,1.336,0,0,1-.492-1.09,1.283,1.283,0,0,1,.492-1.09,2.469,2.469,0,0,1,1.388-.475A2.636,2.636,0,0,1,29,62.71a1.591,1.591,0,0,1,.738.7,2.258,2.258,0,0,1,.29,1.274,2.8,2.8,0,0,1-.29,1.38,1.881,1.881,0,0,1-.738.879,3.085,3.085,0,0,1-1.125.185,1.907,1.907,0,0,1-1.178-.272,1.38,1.38,0,0,1-.562-.817Zm3.041-2.021a1.142,1.142,0,0,0-.334-.879,1.52,1.52,0,0,0-.826-.272,1.134,1.134,0,0,0-.879.352.879.879,0,0,0-.352.773,1.037,1.037,0,0,0,.29.747,1.7,1.7,0,0,0,.879.22,1.38,1.38,0,0,0,.826-.22,1.09,1.09,0,0,0,.334-.747Zm3.911,3.049V65.944H30.514V65.46l2.7-3h.633v3h.879v.483h-.879V67.06Zm0-1.6V63.378L31.217,65.46Zm2.355.422.773-.07a1.081,1.081,0,0,0,.4.694,1.353,1.353,0,0,0,.773.211,1.424,1.424,0,0,0,.879-.334,1.142,1.142,0,0,0,0-1.608h0a1.652,1.652,0,0,0-.879-.264,2.153,2.153,0,0,0-.7.123,1.248,1.248,0,0,0-.413.36l-.685-.07.545-2.373h3v.492H36.762l-.352,1.248a3.84,3.84,0,0,1,1.116-.272,2.5,2.5,0,0,1,1.406.4,1.274,1.274,0,0,1,.466,1.142,1.441,1.441,0,0,1-.422,1.055,2.812,2.812,0,0,1-2.97.193,1.186,1.186,0,0,1-.562-.879Zm8.533-2.294-.756.07c-.079-.281-.132-.413-.281-.492a.958.958,0,0,0-.685-.272,1.573,1.573,0,0,0-.624.141,1.2,1.2,0,0,0-.554.624,1.951,1.951,0,0,0-.211,1.028,1.511,1.511,0,0,1,.633-.492,4.183,4.183,0,0,1,.817-.141,1.933,1.933,0,0,1,1.257.431,1.292,1.292,0,0,1,.483,1.081,1.617,1.617,0,0,1-.2.782,1.757,1.757,0,0,1-.712.615,2.364,2.364,0,0,1-.958.123,2.188,2.188,0,0,1-1.494-.448,2.329,2.329,0,0,1-.562-1.758,2.636,2.636,0,0,1,.562-1.907,2.3,2.3,0,0,1,1.538-.554,2.012,2.012,0,0,1,1.178.325,1.511,1.511,0,0,1,.545.879Zm-3.049,1.977a.958.958,0,0,0,.22.562,1.678,1.678,0,0,0,.4.431,3.181,3.181,0,0,0,.642.123A1.5,1.5,0,0,0,43,66.4a1.125,1.125,0,0,0,.325-.835,1.011,1.011,0,0,0-.343-.738,1.529,1.529,0,0,0-.817-.308,1.757,1.757,0,0,0-.879.308.949.949,0,0,0-.352.738Zm6.661,1.459h-.747V63.457a1.96,1.96,0,0,1-.677.4,5.827,5.827,0,0,1-.773.29v-.562a6,6,0,0,0,1.116-.554,2.962,2.962,0,0,0,.624-.615h.475Zm5.844-.466v.466H49.4a.668.668,0,0,1,.07-.343,3.357,3.357,0,0,1,.483-.633c.272-.2.554-.4.984-.694a11.645,11.645,0,0,0,1.371-.967,1.239,1.239,0,0,0,.36-.694.765.765,0,0,0-.36-.562,1.142,1.142,0,0,0-.817-.272,1.222,1.222,0,0,0-.879.272.791.791,0,0,0-.343.694l-.729-.018a1.494,1.494,0,0,1,.624-1.046,2.636,2.636,0,0,1,1.327-.334,2.109,2.109,0,0,1,1.388.413,1.09,1.09,0,0,1,.554.879.931.931,0,0,1-.22.554,1.758,1.758,0,0,1-.475.58,9.984,9.984,0,0,1-1.107.817c-.483.272-.765.483-.879.554a.731.731,0,0,0-.272.36Zm.747-.712.773-.07a1.142,1.142,0,0,0,.431.7,1.38,1.38,0,0,0,.747.2,1.757,1.757,0,0,0,.879-.281.958.958,0,0,0,.343-.685.879.879,0,0,0-.343-.685,1.485,1.485,0,0,0-.879-.2,1.7,1.7,0,0,0-.554.062l.141-.5h.07a2.083,2.083,0,0,0,.879-.211.756.756,0,0,0,.343-.554.624.624,0,0,0-.29-.554,1.292,1.292,0,0,0-.694-.211,1.388,1.388,0,0,0-.747.211,1.186,1.186,0,0,0-.36.624l-.756-.07a1.758,1.758,0,0,1,.606-.879,2.443,2.443,0,0,1,1.257-.325,1.933,1.933,0,0,1,.879.2.932.932,0,0,1,.615.4,1.142,1.142,0,0,1,.22.624.879.879,0,0,1-.22.554,1.2,1.2,0,0,1-.615.352,1.582,1.582,0,0,1,.879.422.879.879,0,0,1,.264.765,1.151,1.151,0,0,1-.554.975,2.443,2.443,0,0,1-1.459.4,1.977,1.977,0,0,1-1.327-.334,1.424,1.424,0,0,1-.624-.879Z" transform="translate(-16.7 -62.418)" fill="#2a4799"/></g><rect width="2.979" height="33.894" fill="#2a4799"/><g transform="translate(4.57)"><rect width="2.091" height="33.894" fill="#2a4799"/></g><g transform="translate(8.392)"><rect width="0.975" height="33.894" fill="#2a4799"/></g><g transform="translate(13.753)"><rect width="2.909" height="33.894" fill="#2a4799"/></g><g transform="translate(18.463)"><rect width="2.162" height="33.894" fill="#2a4799"/></g><g transform="translate(28.191)"><rect width="0.896" height="33.894" fill="#2a4799"/></g><g transform="translate(24.641)"><rect width="2.162" height="33.894" fill="#2a4799"/></g><g transform="translate(33.736)"><rect width="1.327" height="33.894" fill="#2a4799"/></g><g transform="translate(38.393)"><rect width="2.997" height="33.894" fill="#2a4799"/></g><g transform="translate(45.757)"><rect width="2.909" height="33.894" fill="#2a4799"/></g><g transform="translate(50.485)"><rect width="2.074" height="33.894" fill="#2a4799"/></g><g transform="translate(54.914)"><rect width="2.091" height="33.894" fill="#2a4799"/></g><g transform="translate(59.352)"><rect width="2.162" height="33.894" fill="#2a4799"/></g></g></g></svg>