<svg xmlns="http://www.w3.org/2000/svg" width="36.601" height="58.526" viewBox="0 0 36.601 58.526"><path d="M54.331,62.062a6.4,6.4,0,0,0-5.36-6.3V53.1a3.719,3.719,0,0,0-2.134-3.363V39.739A10.834,10.834,0,0,0,39.4,29.471l.55-16.308a3.924,3.924,0,1,0-7.843-.315,2.053,2.053,0,0,0,0,.315l.55,16.316a10.826,10.826,0,0,0-7.43,10.26v10A3.719,3.719,0,0,0,23.082,53.1v2.676a6.4,6.4,0,0,0-5.352,6.3v1.811H31.475a4.673,4.673,0,0,0,9.152,0h13.7ZM33.981,13.115A2.029,2.029,0,0,1,38.024,13v.113l-.542,15.944a10.583,10.583,0,0,0-2.975,0ZM36.01,30.845A8.894,8.894,0,0,1,44.9,39.739v9.645H27.117V39.739A8.894,8.894,0,0,1,36.01,30.845ZM24.958,53.1a1.811,1.811,0,0,1,1.811-1.819H45.252a1.811,1.811,0,0,1,1.8,1.819v2.587h-22.1ZM36.01,65.708a2.806,2.806,0,0,1-2.62-1.835h5.231A2.773,2.773,0,0,1,36.01,65.708Zm-16.4-3.727a4.487,4.487,0,0,1,4.487-4.406H47.928a4.487,4.487,0,0,1,4.487,4.407Z" transform="translate(-17.73 -9.081)" fill="#294696"/></svg>