<svg xmlns="http://www.w3.org/2000/svg" width="44.495" height="57.645" viewBox="0 0 44.495 57.645"><g transform="translate(-12.309 -9.04)"><path d="M40.789,50.935v-4.1a2.929,2.929,0,0,0-5.851,0v3.7a17.992,17.992,0,0,1-4.626,12.006L26.206,67.1a.948.948,0,0,0,1.385,1.3h0L31.7,63.838a19.873,19.873,0,0,0,5.1-13.286V46.838a1.056,1.056,0,0,1,2.113,0v4.1a21.914,21.914,0,0,1-5.715,14.783l-4,4.4a.932.932,0,1,0,1.377,1.257h0l4-4.4a23.827,23.827,0,0,0,6.219-16.04Z" transform="translate(-2.723 -6.991)" fill="#fff"/><path d="M44.345,45.864a6.915,6.915,0,0,0-13.822,0h0v3.7a13.992,13.992,0,0,1-3.6,9.374l-2.912,3.2A.936.936,0,0,0,25.384,63.4h0l2.921-3.2A15.823,15.823,0,0,0,32.38,49.578V45.864a5.042,5.042,0,0,1,10.085,0v4.1a25.908,25.908,0,0,1-6.739,17.464L32.348,71.14A.928.928,0,0,0,32.4,72.46a.944.944,0,0,0,1.321-.056h0L37.1,68.651a27.789,27.789,0,0,0,7.2-18.721Z" transform="translate(-2.294 -6.017)" fill="#fff"/><path d="M47.663,44.885a10.9,10.9,0,0,0-21.794,0v3.7a10.029,10.029,0,0,1-2.577,6.707l-2.633,2.921a.936.936,0,0,0,1.377,1.265h0l2.625-2.921A11.838,11.838,0,0,0,27.709,48.6V44.885a9.028,9.028,0,0,1,18.056,0v4.1A29.846,29.846,0,0,1,37.978,69.12l-.912,1.032a.936.936,0,0,0,1.377,1.265h0l.936-1.032a31.751,31.751,0,0,0,8.284-21.4Z" transform="translate(-1.625 -5.038)" fill="#fff"/><path d="M22.24,43.855a.936.936,0,0,0,1.865,0h0A13.054,13.054,0,0,1,35.262,30.977a.932.932,0,1,0-.24-1.849h0A14.911,14.911,0,0,0,22.264,43.855Z" transform="translate(-1.982 -4.009)" fill="#fff"/><path d="M23.083,51.895a.936.936,0,1,0-1.865,0,6.051,6.051,0,0,1-1.553,4.042L17.328,58.53a.936.936,0,0,0,1.393,1.249l2.305-2.593A7.908,7.908,0,0,0,23.083,51.895Z" transform="translate(-0.96 -8.351)" fill="#fff"/><path d="M56.511,62.562a.928.928,0,0,0-1.137.664,33.495,33.495,0,0,1-1.281,3.89.934.934,0,1,0,1.737.688h0a35.215,35.215,0,0,0,1.377-4.1.928.928,0,0,0-.7-1.145Z" transform="translate(-8.329 -10.678)" fill="#fff"/><path d="M52.852,33.643a.944.944,0,0,0-1.321,0,.928.928,0,0,0,0,1.321h0a13.062,13.062,0,0,1,4.322,9.677v4.1a34.834,34.834,0,0,1-.32,4.65.928.928,0,0,0,.8,1.064.944.944,0,0,0,1.064-.8h0a35.922,35.922,0,0,0,.336-4.906V44.7A14.919,14.919,0,0,0,52.852,33.643Z" transform="translate(-7.775 -4.858)" fill="#fff"/><path d="M46.68,32.107a.935.935,0,0,0,.8-1.689,14.919,14.919,0,0,0-4.25-1.289.936.936,0,0,0-.264,1.849A12.806,12.806,0,0,1,46.68,32.107Z" transform="translate(-5.973 -4.01)" fill="#fff"/><path d="M40.323,24H39.274a.936.936,0,1,0,.064,1.865h.944A17.008,17.008,0,0,1,57.315,42.833v4.1a.936.936,0,0,0,1.873,0h0v-4.1A18.889,18.889,0,0,0,40.323,24Z" transform="translate(-5.186 -2.986)" fill="#fff"/><path d="M27.843,29.2a.984.984,0,0,0,.536-.168,16.808,16.808,0,0,1,5.074-2.4.936.936,0,0,0-.472-1.809h-.04a18.641,18.641,0,0,0-5.6,2.665.928.928,0,0,0,.528,1.7Z" transform="translate(-2.919 -3.148)" fill="#fff"/><path d="M18.681,47.946v-3.7a16.9,16.9,0,0,1,4.626-11.629.936.936,0,0,0-1.361-1.281,18.769,18.769,0,0,0-5.138,12.934v3.69a2.025,2.025,0,0,1-.528,1.377l-1.153,1.281a.936.936,0,0,0,1.393,1.209l1.153-1.281A3.93,3.93,0,0,0,18.681,47.946Z" transform="translate(-0.536 -4.401)" fill="#fff"/><path d="M66.271,36.317a22.835,22.835,0,0,0-4.842-8.172.936.936,0,1,0-1.4,1.233h0a20.89,20.89,0,0,1,4.45,7.5.936.936,0,0,0,1.769-.592Z" transform="translate(-9.468 -3.738)" fill="#fff"/><path d="M49.736,20.5a.937.937,0,1,0-.64,1.761h0a20.93,20.93,0,0,1,5.747,3.033.928.928,0,0,0,1.3-.184.944.944,0,0,0-.184-1.313h0A22.939,22.939,0,0,0,49.736,20.5Z" transform="translate(-7.22 -2.276)" fill="#fff"/><path d="M20.626,26.7a20.962,20.962,0,0,1,17.52-5.6.944.944,0,0,0,1.064-.8.928.928,0,0,0-.8-1.056h0A22.555,22.555,0,0,0,35.128,19,22.883,22.883,0,0,0,12.31,40.8a.936.936,0,0,0,.9.976h.04a.928.928,0,0,0,.928-.9A20.89,20.89,0,0,1,20.626,26.7Z" transform="translate(0 -1.988)" fill="#fff"/><path d="M39.105,14a26.9,26.9,0,0,0-6.191.721.928.928,0,0,0-.7,1.112.944.944,0,0,0,1.121.712h0A24.932,24.932,0,0,1,57.09,23.556.928.928,0,1,0,58.451,22.3h0A26.717,26.717,0,0,0,39.105,14Z" transform="translate(-3.969 -0.99)" fill="#fff"/><path d="M14.531,26.128a.928.928,0,0,0,1.313-.16,25.132,25.132,0,0,1,10.133-7.716.936.936,0,1,0-.736-1.721,26.973,26.973,0,0,0-10.869,8.284.936.936,0,0,0,.16,1.313Z" transform="translate(-0.372 -1.48)" fill="#fff"/><path d="M24.426,13.85a1.008,1.008,0,0,0,.408-.088A28.581,28.581,0,0,1,37.376,10.9a29.222,29.222,0,0,1,6.771.8.936.936,0,1,0,.464-1.809h0a31.215,31.215,0,0,0-7.2-.848,30.542,30.542,0,0,0-13.358,3.049.936.936,0,0,0,.408,1.777Z" transform="translate(-2.239)" fill="#fff"/><path d="M54.026,13.466a28.38,28.38,0,0,1,2.833,1.313.936.936,0,0,0,.872-1.649,29.421,29.421,0,0,0-3.041-1.393.936.936,0,0,0-.728,1.721H54Z" transform="translate(-8.212 -0.528)" fill="#fff"/></g></svg>