<svg xmlns="http://www.w3.org/2000/svg" width="58.601" height="49.849" viewBox="0 0 58.601 49.849"><g transform="translate(-8.31 -17.703)"><path d="M66.516,38.928,30.8,18.3a4.464,4.464,0,0,0-6.095,1.631L20.6,27.084l-2.733,4.737a4.464,4.464,0,0,0,1.64,6.095l12.208,7.042-1.9,3.252a2.879,2.879,0,0,1-2.469,1.412H20.217V44.157a.8.8,0,0,0-.8-.8H15.061v-1.02a3.544,3.544,0,0,0-3.544-3.544H9.112a.8.8,0,0,0-.8.8h0V66.751a.8.8,0,0,0,.8.8h2.405A3.553,3.553,0,0,0,15.061,64V61.458h4.355a.811.811,0,0,0,.8-.8h0V56.72h7.152a10.021,10.021,0,0,0,8.582-4.92l1.931-3.289L44.6,52.384a4.418,4.418,0,0,0,2.223.6,4.61,4.61,0,0,0,1.166-.155,4.309,4.309,0,0,0,1.95-1.093,6.66,6.66,0,0,0,2.806.62,7.161,7.161,0,0,0,1.749-.228,6.723,6.723,0,0,0,3.644-2.478l1.64.911a.811.811,0,0,0,1.093-.255h0l5.94-10.295a.8.8,0,0,0-.292-1.084ZM13.494,64a1.959,1.959,0,0,1-1.95,1.95H9.913V40.44h1.6a1.959,1.959,0,0,1,1.977,1.895Zm5.12-4.118H15.061v-14.9h3.553Zm15.961-8.864a8.391,8.391,0,0,1-7.206,4.127H20.217V51.227h7.152a4.482,4.482,0,0,0,3.845-2.2l1.913-3.252L36.5,47.71Zm10.823,0L20.29,36.5A2.87,2.87,0,0,1,19.242,32.6l2.341-4.045,23,13.274L51.639,45.9l-2.332,4.054h0a3.3,3.3,0,0,1-.2.292h0a2.861,2.861,0,0,1-3.708.747Zm8.673-.428a5.129,5.129,0,0,1-3.18-.164l2.141-3.708,3.708,2.141a5.093,5.093,0,0,1-2.669,1.731Zm5.812-1.767L54.7,45.833l-1.567-.911L35.441,34.7,22.386,27.157l3.708-6.377A2.861,2.861,0,0,1,30,19.732L65.022,39.9Z" fill="#2a4799"/><path d="M61.01,46.507a3.088,3.088,0,1,0-1.54-2.678,3.088,3.088,0,0,0,1.54,2.678Zm.255-3.407a1.467,1.467,0,0,1,.911-.692,1.485,1.485,0,1,1-1.048,1.822,1.5,1.5,0,0,1,.137-1.13Z" transform="translate(-4.551 -2.05)" fill="#2a4799"/><path d="M30.415,37.774l-6.541-3.79a.8.8,0,1,0-.838,1.357h0l6.569,3.79a.8.8,0,0,0,.8-1.385Z" transform="translate(-1.27 -1.434)" fill="#2a4799"/></g></svg>