<svg xmlns="http://www.w3.org/2000/svg" width="45.582" height="45.45" viewBox="0 0 45.582 45.45"><g transform="translate(-8.63 -13.27)"><g transform="translate(10.467 24.327)"><path d="M20.232,46.849a8.9,8.9,0,1,1,8.827-8.9A8.9,8.9,0,0,1,20.232,46.849Zm0-16.947A8.049,8.049,0,1,0,28.2,37.945,8.049,8.049,0,0,0,20.232,29.9Z" transform="translate(-11.25 -29.04)" fill="#fff"/></g><g transform="translate(37.005 13.88)"><path d="M57.64,31.346a8.6,8.6,0,1,1,8.666-8.6,8.6,8.6,0,0,1-8.666,8.6Zm0-16.337a7.713,7.713,0,1,0,7.8,7.713A7.713,7.713,0,0,0,57.64,15.01Z" transform="translate(-49.1 -14.14)" fill="#fff"/></g><g transform="translate(27.049 42.135)"><path d="M42.893,71.022a8.295,8.295,0,1,1,8.6-8.288,8.456,8.456,0,0,1-8.6,8.288Zm0-15.72a7.439,7.439,0,1,0,7.713,7.432A7.593,7.593,0,0,0,42.893,55.3Z" transform="translate(-34.9 -54.438)" fill="#fff"/></g><g transform="translate(27.666 13.27)"><path d="M39.167,20.029a3.38,3.38,0,1,1,3.373-3.38,3.38,3.38,0,0,1-3.373,3.38Zm0-5.9a2.517,2.517,0,1,0,2.517,2.517,2.517,2.517,0,0,0-2.517-2.517Z" transform="translate(-35.78 -13.27)" fill="#fff"/></g><g transform="translate(8.63 13.27)"><path d="M12.01,20.029a3.38,3.38,0,1,1,3.38-3.38A3.38,3.38,0,0,1,12.01,20.029Zm0-5.9A2.517,2.517,0,1,0,14.5,16.65a2.517,2.517,0,0,0-2.489-2.517Z" transform="translate(-8.63 -13.27)" fill="#fff"/></g><g transform="translate(47.936 37.838)"><path d="M67.761,54.452a3.071,3.071,0,1,1,3.071-3.071,3.071,3.071,0,0,1-3.071,3.071Zm0-5.28a2.209,2.209,0,1,0,1.566.644A2.209,2.209,0,0,0,67.761,49.172Z" transform="translate(-64.69 -48.31)" fill="#fff"/></g><g transform="translate(16.027 50.732)"><path d="M22.56,73.459a3.38,3.38,0,1,1,3.38-3.38A3.38,3.38,0,0,1,22.56,73.459Zm0-5.9a2.517,2.517,0,1,0,2.517,2.517,2.517,2.517,0,0,0-2.517-2.517Z" transform="translate(-19.18 -66.7)" fill="#fff"/></g><g transform="translate(8.63 43.98)"><path d="M12.01,63.829a3.38,3.38,0,1,1,3.38-3.38A3.38,3.38,0,0,1,12.01,63.829Zm0-5.9A2.517,2.517,0,1,0,14.5,60.45a2.517,2.517,0,0,0-2.489-2.517Z" transform="translate(-8.63 -57.07)" fill="#fff"/></g><g transform="translate(12.961 19.32)"><rect width="0.862" height="6.71" transform="translate(0 0.369) rotate(-25.32)" fill="#fff"/></g><g transform="translate(33.891 17.51)"><rect width="0.862" height="4.074" transform="matrix(0.356, -0.934, 0.934, 0.356, 0, 0.806)" fill="#fff"/></g><g transform="translate(27.658 25.42)"><rect width="10.966" height="0.862" transform="translate(0 4.299) rotate(-23.08)" fill="#fff"/></g><g transform="translate(37.95 30.341)"><rect width="13.104" height="0.862" transform="translate(0 12.294) rotate(-69.74)" fill="#fff"/></g><g transform="translate(42.414 42.285)"><rect width="7.04" height="0.862" transform="translate(0 3.798) rotate(-32.65)" fill="#fff"/></g><g transform="translate(13.194 40.817)"><rect width="4.095" height="0.862" transform="translate(0 3.605) rotate(-61.68)" fill="#fff"/></g><g transform="translate(25.353 39.66)"><rect width="0.862" height="5.841" transform="translate(0 0.581) rotate(-42.35)" fill="#fff"/></g><g transform="translate(22.365 52.291)"><rect width="4.824" height="0.862" transform="matrix(0.98, -0.198, 0.198, 0.98, 0, 0.955)" fill="#fff"/></g><g transform="translate(16.455 27.398)"><path d="M22.861,39.562a3.071,3.071,0,1,1,3.071-3.071A3.071,3.071,0,0,1,22.861,39.562Zm0-5.28a2.209,2.209,0,1,0,2.209,2.209A2.209,2.209,0,0,0,22.861,34.282Z" transform="translate(-19.79 -33.42)" fill="#fff"/></g><path d="M26.63,46.443H17.115l-.035-.358v-.337c0-2.419,2.237-4.389,4.985-4.389s4.985,1.97,4.985,4.389v.316l-.035.358Zm-8.778-.785h8.414a3.956,3.956,0,0,0-4.207-3.506A3.956,3.956,0,0,0,17.851,45.658Z" transform="translate(-2.525 -8.395)" fill="#fff"/><g transform="translate(42.474 16.551)"><path d="M59.978,24.092a3.071,3.071,0,1,1,3.064-3.071,3.071,3.071,0,0,1-3.064,3.071Zm0-5.287a2.216,2.216,0,1,0,2.209,2.216,2.216,2.216,0,0,0-2.209-2.216Z" transform="translate(-56.9 -17.95)" fill="#fff"/></g><path d="M63.753,30.963H54.238v-.358a2.8,2.8,0,0,1,0-.33c0-2.426,2.237-4.4,4.992-4.4s4.985,1.97,4.985,4.4a2.21,2.21,0,0,1,0,.309v.358Zm-8.778-.792h8.414a4.277,4.277,0,0,0-8.414,0Z" transform="translate(-13.629 -3.769)" fill="#fff"/><g transform="translate(32.238 44.962)"><path d="M45.1,64.079a2.8,2.8,0,1,1,2.8-2.8A2.8,2.8,0,0,1,45.1,64.079Zm0-4.866a2.04,2.04,0,1,0,2.033,2.033A2.04,2.04,0,0,0,45.1,59.213Z" transform="translate(-42.3 -58.47)" fill="#fff"/></g><path d="M48.581,70.394H39.81v-.638a4.354,4.354,0,0,1,4.6-4.046A4.347,4.347,0,0,1,49,69.756v.617Zm-8.091-.7H48.2a3.652,3.652,0,0,0-3.87-3.239,3.6,3.6,0,0,0-3.842,3.218Z" transform="translate(-9.318 -15.672)" fill="#fff"/></g></svg>