<svg xmlns="http://www.w3.org/2000/svg" width="52.575" height="52.51" viewBox="0 0 52.575 52.51"><g transform="translate(-5.311 -6.55)"><path d="M41.658,47.771a4.283,4.283,0,0,0-6.059,0l-2.79,2.783a3.493,3.493,0,0,1-4.936,0L17.863,40.538a3.479,3.479,0,0,1,0-4.928l2.79-2.79a4.3,4.3,0,0,0,0-6.059L16.24,22.353a4.283,4.283,0,0,0-6.059,0L8.267,24.267c-5.914,5.914-2.674,18.779,7.212,28.65C22,59.44,29.858,63.064,36.135,63.064a11.015,11.015,0,0,0,8.016-2.957l1.913-1.913a4.3,4.3,0,0,0,0-6.059Zm3.392,9.422-1.913,1.935c-5.349,5.385-17.3,2.124-26.635-7.212S3.933,30.637,9.289,25.281L11.2,23.368a2.848,2.848,0,0,1,4.023,0h0l4.407,4.414a2.848,2.848,0,0,1,0,4.022l-2.783,2.79a4.914,4.914,0,0,0,0,6.965l9.987,10.016a4.928,4.928,0,0,0,6.965,0l2.819-2.79a2.834,2.834,0,0,1,4.023,0h0L45.05,53.2a2.848,2.848,0,0,1,0,4.023Z" transform="translate(0 -4.004)" fill="#2a4799"/><path d="M38.515,31.47a8.8,8.8,0,0,1,8.792,8.792.725.725,0,0,0,.725.725h3.805a.725.725,0,0,0,.725-.725A14.046,14.046,0,0,0,38.515,26.23a.725.725,0,0,0-.725.725h0V30.76a.725.725,0,0,0,.725.725Zm.725-3.783a12.6,12.6,0,0,1,11.843,11.85h-2.37a10.234,10.234,0,0,0-9.48-9.48Z" transform="translate(-8.939 -5.416)" fill="#2a4799"/><path d="M38.515,16.38a.725.725,0,0,0-.725.725h0V20.91a.725.725,0,0,0,.725.725h0A15.945,15.945,0,0,1,54.46,37.58a.725.725,0,0,0,.725.725h3.776a.725.725,0,0,0,.725-.725A21.185,21.185,0,0,0,38.522,16.416ZM55.859,36.826A17.4,17.4,0,0,0,39.232,20.2V17.837a19.75,19.75,0,0,1,19,18.989Z" transform="translate(-8.939 -2.705)" fill="#2a4799"/><path d="M38.515,6.55a.725.725,0,0,0-.725.725h0V11.08a.725.725,0,0,0,.725.725h0A23.084,23.084,0,0,1,61.57,34.845a.725.725,0,0,0,.725.725H66.1a.725.725,0,0,0,.725-.725,28.331,28.331,0,0,0-28.31-28.3ZM63,34.128A24.526,24.526,0,0,0,39.232,10.362V8A26.889,26.889,0,0,1,65.36,34.091Z" transform="translate(-8.939)" fill="#2a4799"/><path d="M38.518,43.864h5.7a.725.725,0,0,0,.725-.725,6.429,6.429,0,0,0-6.422-6.429.725.725,0,0,0-.725.725h0v5.711A.725.725,0,0,0,38.518,43.864Zm.725-5.653a4.986,4.986,0,0,1,4.211,4.218H39.235Z" transform="translate(-8.942 -8.301)" fill="#2a4799"/></g></svg>