<svg xmlns="http://www.w3.org/2000/svg" width="54.415" height="54.4" viewBox="0 0 54.415 54.4"><g transform="translate(-8.87 -13.097)"><g transform="translate(8.87 13.097)"><g transform="translate(2.073 31.245)"><path d="M13.532,49.87a2.082,2.082,0,1,0,2.082,2.082h0A2.082,2.082,0,0,0,13.532,49.87Zm0,2.773a.7.7,0,1,1,.691-.691A.691.691,0,0,1,13.532,52.643Z" transform="translate(-11.322 -49.742)" fill="#2a4799"/><path d="M13.51,54.122A2.2,2.2,0,1,1,15.7,51.93a2.2,2.2,0,0,1-2.193,2.193Zm0-4.163a1.971,1.971,0,1,0,1.962,1.971h0a1.962,1.962,0,0,0-1.962-1.971Zm0,2.773a.811.811,0,1,1,.8-.8.853.853,0,0,1-.8.811Zm0-1.382a.58.58,0,1,0,0,1.16.6.6,0,0,0,.589-.58h0a.589.589,0,0,0-.58-.58Z" transform="translate(-11.3 -49.72)" fill="#2a4799"/></g><g transform="translate(6.245 38.199)"><path d="M52.4,58.454a.691.691,0,0,0-.657-.444H23.975a.665.665,0,0,0-.631.392L16.4,72.992a.7.7,0,0,0,.324.921.734.734,0,0,0,.307.068H57.308a.691.691,0,0,0,.691-.7.589.589,0,0,0,0-.239ZM18.122,72.591l6.288-13.2H51.268l5.034,13.2Z" transform="translate(-16.211 -57.89)" fill="#2a4799"/><path d="M57.287,74.072H17a.853.853,0,0,1-.811-.8.776.776,0,0,1,.077-.35l6.945-14.589a.853.853,0,0,1,.734-.461H51.733a.8.8,0,0,1,.751.52l5.554,14.581a.8.8,0,0,1-.751,1.1ZM23.954,58.1a.58.58,0,0,0-.529.324L16.48,73.014a.572.572,0,0,0,.273.768.5.5,0,0,0,.247.06H57.287a.572.572,0,0,0,.537-.785L52.27,58.476a.58.58,0,0,0-.546-.375ZM56.442,72.681H17.922l6.39-13.429H51.323v.077Zm-38.154-.2H56.127L51.17,59.491H24.457Z" transform="translate(-16.19 -57.87)" fill="#2a4799"/></g><path d="M57.63,27.818H51.206l-.537-13.932a.7.7,0,0,0-.691-.665H23.589a.7.7,0,0,0-.7.665l-.529,13.924h-7.8C10.911,27.818,9,35.948,9,40.334V56.3a4.88,4.88,0,0,0,4.863,4.863h3.472a.7.7,0,0,0,.691-.7h0V49.369H54.841V60.46a.691.691,0,0,0,.691.691h2.781a4.872,4.872,0,0,0,4.863-4.863V40.334c0-4.368-1.911-12.5-5.554-12.5Zm-33.9.717h0l.537-13.915H49.3l.537,13.915.111,2.756H23.615Zm-1.331,3.933a.683.683,0,0,0,.5.213H50.677a.7.7,0,0,0,.691-.7h0l-.1-2.739h4.812c.853.461,2.218,2.807,3,4.82a.648.648,0,0,1,0,.691,2.781,2.781,0,0,1-2.107.734h-40.1a2.8,2.8,0,0,1-2.116-.734.691.691,0,0,1,0-.691c.793-2.013,2.133-4.36,3-4.82h4.547L22.2,31.99a.751.751,0,0,0,.2.512Zm32.42,15.485H18.026V45.18A2.781,2.781,0,0,1,20.808,42.4H52.059a2.781,2.781,0,0,1,2.781,2.781Zm6.945,8.335a3.472,3.472,0,0,1-3.472,3.472H56.223V45.18a4.155,4.155,0,0,0-4.163-4.163H20.808a4.155,4.155,0,0,0-4.129,4.163V59.76H13.863a3.472,3.472,0,0,1-3.472-3.472V40.334c0-4.752,2.065-11.091,4.163-11.091h1.16a19.87,19.87,0,0,0-2.321,4.266,2.022,2.022,0,0,0,.162,1.979,4.07,4.07,0,0,0,3.259,1.348h40.1A4.1,4.1,0,0,0,60.19,35.5a2.013,2.013,0,0,0,.179-1.988,19.828,19.828,0,0,0-2.218-4.181c1.885.981,3.634,6.74,3.634,11.006Z" transform="translate(-8.889 -13.115)" fill="#2a4799"/><path d="M58.294,61.252H55.513A.853.853,0,0,1,54.7,60.4V49.444H18.127v11a.853.853,0,0,1-.811.853H13.844A4.982,4.982,0,0,1,8.87,56.27V40.316c0-4.4,1.945-12.618,5.674-12.618h7.678l.537-13.83a.793.793,0,0,1,.853-.768h26.32a.793.793,0,0,1,.853.768l.529,13.813h6.3c3.72,0,5.674,8.216,5.674,12.618V56.27A4.991,4.991,0,0,1,58.294,61.252ZM17.9,49.214H54.932V60.433a.58.58,0,0,0,.58.58h2.781a4.744,4.744,0,0,0,4.744-4.744V40.316c0-4.326-1.868-12.388-5.435-12.388H51.076v-.111l-.537-13.949a.589.589,0,0,0-.58-.555H23.57a.572.572,0,0,0-.58.555L22.444,27.9h-7.9C10.969,27.9,9.1,35.964,9.1,40.29V56.27a4.761,4.761,0,0,0,4.744,4.752h3.472a.58.58,0,0,0,.58-.58Zm40.4,10.639h-2.2V45.162a4.053,4.053,0,0,0-4.053-4.053H20.789a4.053,4.053,0,0,0-4.053,4.053v14.7H13.844a3.592,3.592,0,0,1-3.583-3.583V40.316c0-4.9,2.073-11.228,4.266-11.228h1.4l-.119.137a20.058,20.058,0,0,0-2.321,4.266,1.92,1.92,0,0,0,.154,1.868,3.95,3.95,0,0,0,3.165,1.3H56.9a3.95,3.95,0,0,0,3.165-1.3,1.92,1.92,0,0,0,.154-1.868,20.476,20.476,0,0,0-2.184-4.1l-.3-.392.444.222c1.988,1.024,3.694,6.945,3.694,11.091V56.278a3.592,3.592,0,0,1-3.583,3.583Zm-1.971-.23h1.971a3.413,3.413,0,0,0,3.361-3.353V40.316c0-3.89-1.45-8.719-2.986-10.392a21.7,21.7,0,0,1,1.792,3.566,2.133,2.133,0,0,1-.171,2.082A4.23,4.23,0,0,1,56.929,36.9H16.83a4.2,4.2,0,0,1-3.361-1.4,2.133,2.133,0,0,1-.222-2.013,20.672,20.672,0,0,1,2.2-4.163h-.913c-2,0-4.053,6.4-4.053,11V56.27a3.361,3.361,0,0,0,3.361,3.353h2.662V45.162A4.266,4.266,0,0,1,20.772,40.9H52.04a4.266,4.266,0,0,1,4.266,4.266ZM54.932,48.054H17.9V45.162a2.892,2.892,0,0,1,2.892-2.892H52.04a2.892,2.892,0,0,1,2.892,2.892Zm-36.806-.23H54.7V45.162A2.662,2.662,0,0,0,52.04,42.5H20.789a2.662,2.662,0,0,0-2.662,2.662Zm38.8-12.277H16.83a2.867,2.867,0,0,1-2.21-.785.8.8,0,0,1,0-.793c.8-2.031,2.159-4.411,3.063-4.889h4.795l-.111,2.867a.589.589,0,0,0,.154.427.606.606,0,0,0,.427.179H50.658a.606.606,0,0,0,.418-.179.648.648,0,0,0,.162-.427l-.111-2.867H56.11c.9.469,2.269,2.85,3.063,4.88a.759.759,0,0,1,0,.793,2.85,2.85,0,0,1-2.244.793ZM17.683,29.3c-.853.478-2.176,2.824-2.935,4.752a.563.563,0,0,0,0,.58,2.739,2.739,0,0,0,2.022.683h40.1a2.7,2.7,0,0,0,2.013-.683c.051-.068.154-.213,0-.58-.751-1.928-2.082-4.266-2.926-4.752h-4.6l.1,2.628a.8.8,0,0,1-.8.845H22.879a.853.853,0,0,1-.589-.247h0a.853.853,0,0,1-.222-.6l.1-2.628Zm32.352,2.082H23.485l.648-16.9H49.4v.111ZM23.7,31.153H49.813l-.64-16.432H24.338Z" transform="translate(-8.87 -13.097)" fill="#2a4799"/></g></g></svg>