<svg xmlns="http://www.w3.org/2000/svg" width="265.278" height="38.897" viewBox="0 0 265.278 38.897"><g transform="translate(0 -19)"><g transform="translate(0 19)"><path d="M360.7,82.637V75.405H323.275a11.388,11.388,0,0,1,2.456-4.578,9.738,9.738,0,0,1,4.684-3.1,8.258,8.258,0,0,1,2.187-.291h29.379a10.588,10.588,0,0,1,6.005,3.428,10.387,10.387,0,0,1,2.325,4.888v7.729a10.452,10.452,0,0,1-2.346,3.862A10.877,10.877,0,0,1,361.6,90.5l8.715,15.669H360.7L351.84,90.487c-3,.036-15.151.046-18.223.015v15.592h-9.2V89.244a8.228,8.228,0,0,1,.567-2.184,7.041,7.041,0,0,1,6.086-4.457" transform="translate(-270.853 -67.273)" fill="#fff"/><rect width="9.129" height="23.431" transform="translate(106.794 15.392)" fill="#fff"/><path d="M440.23,67.662v33.209a5.085,5.085,0,0,0,5.32,5.31h33.269c.024-.251.417-5.155-3.266-7.76a7.9,7.9,0,0,0-4.687-1.381H449.393V75.562a10.288,10.288,0,0,0-2.311-4.48A10.761,10.761,0,0,0,440.23,67.662Z" transform="translate(-316.979 -67.361)" fill="#fff"/><path d="M414.657,81.253V81.3h-1.61V79.749h.1A1.512,1.512,0,0,1,414.657,81.253Z" transform="translate(-306.259 -72.128)" fill="#fff"/><path d="M422.191,76.337v.236h-1.6v-.221a7.09,7.09,0,0,0-7.061-7.034h-.488V67.77h.547A8.557,8.557,0,0,1,422.191,76.337Z" transform="translate(-306.259 -67.404)" fill="#fff"/><path d="M413.057,79.756" transform="translate(-306.263 -72.131)" fill="#fff"/><path d="M413.057,78.308" transform="translate(-306.263 -71.56)" fill="#fff"/><g transform="translate(106.794 5.206)"><line y2="1.542" fill="#fff"/><line y2="1.542" fill="#ea5b27"/><line y2="1.542" fill="#fff"/></g><g transform="translate(106.794 1.908)"><path d="M413.057,70.316" transform="translate(-413.057 -70.316)" fill="#fff"/><path d="M413.057,70.316" transform="translate(-413.057 -70.316)" fill="#fff"/><path d="M413.057,70.316" transform="translate(-413.057 -70.316)" fill="#fff"/></g><g transform="translate(106.794 0.366)"><path d="M413.057,67.77" transform="translate(-413.057 -67.77)" fill="#fff"/><path d="M413.057,67.77" transform="translate(-413.057 -67.77)" fill="#fff"/><path d="M413.057,67.77" transform="translate(-413.057 -67.77)" fill="#fff"/></g><g transform="translate(106.794 2.786)"><line y2="1.542" fill="#fff"/><line y2="1.542" fill="#ea5b27"/><line y2="1.542" fill="#fff"/></g><path d="M413.057,75.762" transform="translate(-306.263 -70.556)" fill="#fff"/><path d="M413.057,74.314" transform="translate(-306.263 -69.985)" fill="#fff"/><path d="M414.655,81.255V81.3h-1.6V79.756h.1A1.5,1.5,0,0,1,414.655,81.255Z" transform="translate(-306.263 -72.131)" fill="#fff"/><path d="M414.655,81.255V81.3h-1.6V79.756h.1A1.5,1.5,0,0,1,414.655,81.255Z" transform="translate(-306.263 -72.131)" fill="#fff"/><path d="M414.657,81.253V81.3h-1.61V79.749h.1A1.512,1.512,0,0,1,414.657,81.253Z" transform="translate(-306.259 -72.128)" fill="#fff"/><path d="M414.657,81.253V81.3h-1.61V79.749h.1A1.512,1.512,0,0,1,414.657,81.253Z" transform="translate(-306.259 -72.128)" fill="#fff"/><path d="M417.168,79.6v.118h-1.61v-.074a2.343,2.343,0,0,0-2.349-2.344h-.162V75.756h.266A3.874,3.874,0,0,1,417.168,79.6Z" transform="translate(-306.259 -70.553)" fill="#fff"/><path d="M419.68,77.956v.191h-1.61V78a4.724,4.724,0,0,0-4.7-4.689h-.325V71.763h.428A6.236,6.236,0,0,1,419.68,77.956Z" transform="translate(-306.259 -68.978)" fill="#fff"/><path d="M643.493,83.944a1.824,1.824,0,1,1-1.832-1.829A1.817,1.817,0,0,1,643.493,83.944Z" transform="translate(-395.708 -73.061)" fill="#fff"/><path d="M623.225,96.338a1.245,1.245,0,1,0,1.248,1.245A1.244,1.244,0,0,0,623.225,96.338Zm0,0a1.245,1.245,0,1,0,1.248,1.245A1.244,1.244,0,0,0,623.225,96.338Zm0,0a1.245,1.245,0,1,0,1.248,1.245A1.244,1.244,0,0,0,623.225,96.338Zm11.019,3.336a1.082,1.082,0,1,0,1.084,1.082A1.089,1.089,0,0,0,634.244,99.674Zm0,0a1.082,1.082,0,1,0,1.084,1.082A1.089,1.089,0,0,0,634.244,99.674Zm-11.019-3.336a1.245,1.245,0,1,0,1.248,1.245A1.244,1.244,0,0,0,623.225,96.338Zm17.672,9.65h1.232Q633.509,86.577,624.9,67.165H613.335q-9.021,19.412-18.073,38.823h9.192c6.059-13,5.777-12.392,10.47-22.473,1.277-2.713,2.539-5.441,3.817-8.153h.624q3.653,8.383,7.291,16.751h-5.673q-1.826,3.936-3.638,7.872c.757,0,7.143,0,7.9-.015h5c.906,2,1.8,4.018,2.7,6.018h6.712L631.393,87.8l1.01-.46Zm-6.861-7.041a1,1,0,0,1,.208-.015,1.819,1.819,0,1,1-1.232.474l-.653-1.453h-7.187a1.986,1.986,0,1,1,0-.741h6.846l-7.38-16.246a3.172,3.172,0,0,1-.653.074,2.943,2.943,0,1,1,2.955-2.935,2.9,2.9,0,0,1-1.277,2.416Zm.208,2.891a1.082,1.082,0,1,0-1.084-1.082A1.089,1.089,0,0,0,634.244,101.837Zm-11.019-5.5a1.245,1.245,0,1,0,1.248,1.245A1.244,1.244,0,0,0,623.225,96.338Zm0,0a1.245,1.245,0,1,0,1.248,1.245A1.244,1.244,0,0,0,623.225,96.338Zm0,0a1.245,1.245,0,1,0,1.248,1.245A1.244,1.244,0,0,0,623.225,96.338Z" transform="translate(-378.125 -67.165)" fill="#fff"/><path d="M674.755,108.543" transform="translate(-409.477 -83.485)" fill="#fff"/><g transform="translate(0 0.38)"><g transform="translate(26.829 25.135)"><path d="M283.649,109.3v13.21a10.2,10.2,0,0,1-2.635,0v-11.34A3.977,3.977,0,0,0,283.649,109.3Z" transform="translate(-281.014 -109.297)" fill="#fff"/></g><g transform="translate(22.784 3.169)"><path d="M276.267,73.983a.966.966,0,1,1-.974-.957A.968.968,0,0,1,276.267,73.983Z" transform="translate(-274.335 -73.026)" fill="#fff"/></g><g transform="translate(23.668 20.768)"><path d="M280.618,104.494a2.412,2.412,0,1,1-2.412-2.407A2.408,2.408,0,0,1,280.618,104.494Z" transform="translate(-275.794 -102.087)" fill="#fff"/></g><g transform="translate(35.157 4.066)"><path d="M297.387,75.823a1.311,1.311,0,1,1-1.318-1.316A1.316,1.316,0,0,1,297.387,75.823Z" transform="translate(-294.765 -74.507)" fill="#fff"/></g><g transform="translate(6.589 3.615)"><path d="M248.755,76.086a1.162,1.162,0,1,1,1.163-1.163A1.165,1.165,0,0,1,248.755,76.086Z" transform="translate(-247.592 -73.762)" fill="#fff"/></g><path d="M263.346,69.079V70.2h22.663a7.941,7.941,0,0,1-1.167,2.393h-9.708a2.044,2.044,0,1,0,.016,1.122h8.717c-.1.1-.223.208-.343.314A8.245,8.245,0,0,1,278.28,75.9c-4.029-.03-8.074-.045-12.1-.075V89.01a3.927,3.927,0,0,0-3.384-1.944,4.1,4.1,0,0,0-1.588.344V73.444a1.708,1.708,0,1,0-1.5,0V88.607a3.829,3.829,0,0,0-.824,2.361,3.916,3.916,0,0,0,3.16,3.829v11.03a6.377,6.377,0,0,1-1.919-.692v-8.9h-1.251v7.975A6.8,6.8,0,0,1,256.92,99.8V75.821q-10.111.045-20.208.075a12.206,12.206,0,0,1,1.272-2.677h4.53a2.051,2.051,0,1,0,0-1.3h-3.582a11.474,11.474,0,0,1,2.732-2.375,11.765,11.765,0,0,1,5.9-1.751H286.4a11.134,11.134,0,0,1-.12,1.286Z" transform="translate(-236.712 -67.793)" fill="#fff"/><g transform="translate(26.684 21.431)"><line x2="0.015" transform="translate(2.502 1.945)" fill="#fff"/><path d="M288.515,103.181" transform="translate(-283.827 -103.181)" fill="#fff"/><path d="M280.774,109.95" transform="translate(-280.774 -105.851)" fill="#fff"/><path d="M286.426,104.894" transform="translate(-283.003 -103.857)" fill="#fff"/><path d="M285.179,108.961" transform="translate(-282.511 -105.461)" fill="#fff"/></g><path d="M271.885,124.608" transform="translate(-250.584 -90.201)" fill="#fff"/></g><path d="M514.271,67.511v38.614l9.188-.038V90.549h25.547v15.575h9.188V82.692H523.512V67.516Z" transform="translate(-346.182 -67.301)" fill="#fff"/></g><rect width="8.926" height="8.926" transform="translate(202.04 19.222)" fill="#fff"/></g></svg>