<svg xmlns="http://www.w3.org/2000/svg" width="56.623" height="57.305" viewBox="0 0 56.623 57.305"><g transform="translate(-45.245 -38.991)"><g transform="translate(51.384 54.338)"><g transform="translate(23.759 22.259)"><path d="M133.367,146.9v11.7a9.039,9.039,0,0,1-2.334,0V148.552A3.521,3.521,0,0,0,133.367,146.9Z" transform="translate(-131.033 -146.897)" fill="#fff"/></g><g transform="translate(20.177 2.806)"><path d="M122.466,91.928a.856.856,0,1,1-.862-.848A.857.857,0,0,1,122.466,91.928Z" transform="translate(-120.755 -91.08)" fill="#fff"/></g><g transform="translate(20.959 18.392)"><path d="M127.272,137.933a2.136,2.136,0,1,1-2.136-2.132A2.133,2.133,0,0,1,127.272,137.933Z" transform="translate(-123 -135.801)" fill="#fff"/></g><g transform="translate(31.134 3.601)"><path d="M154.516,94.525a1.161,1.161,0,1,1-1.167-1.165A1.165,1.165,0,0,1,154.516,94.525Z" transform="translate(-152.195 -93.36)" fill="#fff"/></g><g transform="translate(5.835 3.201)"><path d="M80.632,94.271a1.029,1.029,0,1,1,1.03-1.029A1.031,1.031,0,0,1,80.632,94.271Z" transform="translate(-79.602 -92.213)" fill="#fff"/></g><path d="M86.446,84.171v.99h20.066a7.055,7.055,0,0,1-1.034,2.112H96.886a1.812,1.812,0,0,0-3.553.517,1.815,1.815,0,0,0,3.564.484h7.723c-.1.088-.2.176-.308.275a7.3,7.3,0,0,1-4.643,1.65c-3.564-.022-7.151-.033-10.715-.066v11.684a3.494,3.494,0,0,0-3-1.727,3.548,3.548,0,0,0-1.4.308V88.033a1.5,1.5,0,0,0-.671-2.861,1.509,1.509,0,0,0-1.507,1.507,1.527,1.527,0,0,0,.847,1.353v13.422a3.4,3.4,0,0,0-.726,2.1,3.466,3.466,0,0,0,2.794,3.388v9.769A5.551,5.551,0,0,1,83.6,116.1V108.22H82.485v7.063a6,6,0,0,1-1.727-3.905V90.134c-5.974.033-11.947.044-17.9.066.011-.022.011-.044.022-.066a11.621,11.621,0,0,1,1.1-2.3H68a1.821,1.821,0,1,0,0-1.155H64.828a10.029,10.029,0,0,1,2.42-2.1,10.348,10.348,0,0,1,5.215-1.551h34.4c-.022.143-.022.572-.11,1.144Z" transform="translate(-62.859 -83.027)" fill="#fff"/><g transform="translate(23.63 18.979)"><line x2="0.013" transform="translate(2.216 1.722)" fill="#fff"/><path d="M142.576,137.485" transform="translate(-138.425 -137.485)" fill="#fff"/><path d="M130.664,147.9" transform="translate(-130.664 -144.271)" fill="#fff"/><path d="M139.362,140.121" transform="translate(-136.331 -139.202)" fill="#fff"/><path d="M137.443,146.378" transform="translate(-135.08 -143.279)" fill="#fff"/></g><path d="M116.985,170.457" transform="translate(-98.122 -139.987)" fill="#fff"/></g><g transform="translate(45.245 38.991)"><path d="M73.21,38.991A28.677,28.677,0,0,0,45.245,61.444h2.717a25.993,25.993,0,1,1,21.32,31.915v2.662a27.265,27.265,0,0,0,3.928.275,28.653,28.653,0,1,0,0-57.305Z" transform="translate(-45.245 -38.991)" fill="#fff"/></g></g></svg>